<svg version="1.1" id="Layer_1" xmlns="http://www.w3.org/2000/svg" xmlns:xlink="http://www.w3.org/1999/xlink" x="0px" y="0px"
	 width="100%" viewBox="0 0 512 512" enable-background="new 0 0 512 512" xml:space="preserve">
<path fill="#000000" opacity="1.000000" stroke="none" 
	d="
M98.000000,513.000000 
	C65.709839,513.000000 33.419685,513.000000 1.000000,513.000000 
	C1.000000,436.312500 1.000000,359.624908 1.279342,282.168335 
	C1.760681,281.583618 1.962677,281.767944 2.241035,282.356018 
	C3.210972,288.856415 3.745195,295.032745 5.076112,301.032379 
	C7.525654,312.074615 10.443681,323.012970 13.112041,334.376160 
	C19.049103,349.211212 24.943331,363.706451 31.116407,378.082001 
	C32.311092,380.864136 34.126766,383.784698 36.466434,385.592499 
	C42.925201,390.582886 52.531456,390.097137 58.367928,385.088318 
	C63.283298,380.869995 64.931580,371.545410 61.847572,364.815704 
	C56.973484,354.179779 52.029202,343.575989 47.049660,332.572815 
	C44.297928,321.953705 41.401447,311.769409 38.996727,301.470245 
	C37.340672,294.377563 36.366016,287.125763 35.049484,279.482605 
	C34.675121,271.264862 34.128159,263.511292 34.067223,255.753906 
	C34.018131,249.504166 34.556355,243.249802 35.029446,236.629608 
	C36.524147,227.853806 37.823402,219.445908 39.446552,210.817352 
	C41.794907,203.059433 43.819363,195.522141 45.917850,187.605347 
	C50.698856,175.831619 55.405827,164.437424 60.414909,152.871765 
	C65.144035,145.497940 69.421570,138.197891 74.044594,131.123581 
	C77.857140,125.289482 82.078690,119.722664 86.419975,113.900726 
	C92.706764,107.749252 98.642548,101.683540 104.695168,95.736732 
	C109.065659,91.442650 113.591507,87.306679 118.400749,83.047218 
	C132.165710,74.608047 145.577988,66.221840 159.342682,57.797119 
	C166.376709,54.832191 172.975479,51.695965 179.755371,49.018414 
	C200.680923,40.754398 222.597687,36.624290 244.905609,35.174061 
	C261.839478,34.073196 278.944977,34.581871 295.552216,38.432568 
	C310.819458,41.972561 325.790039,46.791920 341.070068,51.368523 
	C353.606293,56.876049 365.623413,62.690643 377.493835,70.731842 
	C375.286469,70.945427 374.145233,71.055855 372.579224,71.095078 
	C370.435059,71.071442 368.715729,71.118996 366.556641,71.098953 
	C363.745941,71.076332 361.374969,71.121307 358.543823,71.094978 
	C355.251007,71.014351 352.417419,70.954330 349.585846,71.004860 
	C339.555786,71.183868 334.022705,78.027184 333.090515,87.020363 
	C332.249695,95.132095 340.233276,103.780663 348.687347,103.937798 
	C374.780640,104.422775 400.877930,104.759384 426.975128,104.933167 
	C434.827454,104.985458 440.175476,100.159096 442.035736,92.635185 
	C443.846985,85.309441 440.906921,78.733131 439.065735,71.538788 
	C437.623688,64.079582 436.231873,57.040508 434.772888,49.618469 
	C433.081940,42.156277 431.458130,35.077049 429.762177,27.613882 
	C429.464233,26.636194 429.130676,26.060305 429.028870,25.446014 
	C427.520905,16.347303 426.700226,6.924258 417.422607,1.610661 
	C417.615082,1.407105 417.807526,1.203551 418.000000,0.999998 
	C449.624390,1.000000 481.248779,1.000000 513.000000,1.000000 
	C513.000000,78.354179 513.000000,155.708435 512.720093,233.824585 
	C512.243042,234.401779 512.045776,234.217056 511.766907,233.626404 
	C511.123138,229.220276 510.835876,225.158051 509.949585,221.231018 
	C506.760040,207.098679 503.368317,193.011963 500.027374,178.517227 
	C493.235107,162.520172 486.862762,146.725235 479.525299,131.392120 
	C476.166504,124.373283 465.550232,122.551056 458.272461,125.848106 
	C451.094391,129.099945 446.939850,139.369492 450.237396,146.459305 
	C455.456085,157.679520 460.847473,168.819382 466.106384,180.375488 
	C472.078888,198.040283 476.721863,215.639191 478.252106,234.378754 
	C478.891907,241.430542 479.962372,248.076996 479.875427,254.708282 
	C479.751709,264.142792 478.777710,273.566132 478.097717,283.419739 
	C477.889801,285.152435 477.857300,286.481323 477.595825,287.763519 
	C475.410004,298.482208 473.182098,309.192322 470.649750,320.124634 
	C469.946167,321.757202 469.694336,323.224152 469.152252,324.574615 
	C464.413086,336.380981 459.622040,348.166565 454.546326,360.135925 
	C446.136444,372.858978 438.026581,385.404419 429.624908,398.123230 
	C426.085083,402.168457 423.057159,406.254822 419.539124,409.863373 
	C413.821869,415.727753 407.783752,421.279327 401.579376,427.106201 
	C391.949371,433.965424 382.621094,440.681396 373.024963,447.609375 
	C362.076508,453.270386 351.395874,458.719391 340.307800,464.143860 
	C337.298767,465.097107 334.712036,466.116547 332.093323,467.045898 
	C313.487823,473.648865 294.371094,477.507477 274.653961,479.182709 
	C255.096130,480.844391 235.724625,480.361786 216.626892,476.161682 
	C202.639252,473.085449 188.931305,468.737518 174.896820,464.649902 
	C165.379974,459.969666 155.938980,455.840088 146.801285,451.122986 
	C141.963913,448.625763 137.653931,445.106934 133.567505,442.029114 
	C143.318069,442.155243 152.624786,442.001862 161.889862,442.551056 
	C168.301651,442.931152 173.851456,441.793488 178.407288,437.092529 
	C183.147415,432.201294 183.033615,425.925568 181.463760,420.336090 
	C180.007843,415.152344 176.056122,410.816620 169.973648,410.057068 
	C165.241440,409.466125 160.454025,409.054138 155.689102,409.033386 
	C132.904831,408.934082 110.119781,408.960938 87.335228,409.023773 
	C81.684593,409.039368 75.529221,414.338867 73.972351,419.764160 
	C71.705315,427.664185 75.320717,434.700348 76.916336,442.462555 
	C78.702904,450.583252 80.435371,458.290649 82.105217,466.404663 
	C83.655045,473.553162 85.267487,480.295074 86.926727,487.456238 
	C87.632950,491.035522 88.587830,494.167938 88.887177,497.361725 
	C89.426437,503.115204 91.632339,507.625824 96.834312,510.522675 
	C97.481911,510.883270 97.623795,512.152039 98.000000,513.000000 
M378.767609,162.335693 
	C373.529297,156.855652 368.290955,151.375610 362.776703,145.287354 
	C355.887726,139.843109 348.998718,134.398849 341.770325,128.340805 
	C334.037994,124.191063 326.437622,119.768738 318.546204,115.947510 
	C301.390503,107.640297 282.947266,104.055634 264.114380,103.194008 
	C254.140518,102.737686 244.028992,103.930893 234.057236,105.063019 
	C211.322083,107.644234 190.704422,116.014198 171.190567,129.007782 
	C157.401947,138.449600 145.328766,149.709473 134.857925,163.615204 
	C125.122093,175.384857 118.078949,188.658493 112.248459,203.360580 
	C111.956490,204.288742 111.642685,205.210693 111.375847,206.146027 
	C107.838005,218.546661 103.689499,230.831650 103.753380,244.749680 
	C103.501404,245.831284 103.052475,246.908340 103.027367,247.995178 
	C102.716949,261.431976 103.197426,274.812439 106.075714,288.780304 
	C106.375656,289.705475 106.771782,290.611450 106.960991,291.558746 
	C109.461845,304.079712 113.972588,315.862152 120.248627,327.743317 
	C125.796227,336.178436 131.343826,344.613525 137.188614,353.664001 
	C141.441376,358.143494 145.694122,362.623016 150.228638,367.704407 
	C156.450165,372.819122 162.671707,377.933838 169.204285,383.675262 
	C175.794357,387.610992 182.131012,392.077057 189.027115,395.372375 
	C203.521347,402.298462 218.731216,406.824463 234.755646,409.275116 
	C251.301666,411.805481 267.670868,411.448578 283.938721,408.761688 
	C305.781799,405.153992 325.801880,396.541626 344.720856,383.752563 
	C357.590515,374.394226 369.236206,363.761261 379.146240,350.379425 
	C388.865204,338.602509 395.915344,325.334961 401.740051,310.627136 
	C402.021118,309.692078 402.308319,308.758789 402.582306,307.821655 
	C406.201660,295.443298 410.303467,283.157227 410.248291,269.244446 
	C410.010376,258.173218 409.967407,247.092575 409.432770,236.035690 
	C409.235382,231.953644 407.879944,227.927597 407.005768,223.064850 
	C405.996307,218.829254 405.440643,214.417526 403.879822,210.395905 
	C400.931122,202.798340 397.404419,195.425140 393.998505,187.232285 
	C388.944611,179.155502 383.890717,171.078720 378.767609,162.335693 
z"/>
<path fill="#000000" opacity="1.000000" stroke="none" 
	d="
M1.000002,232.000000 
	C1.000000,155.071564 1.000000,78.143120 1.000000,1.000000 
	C80.687431,1.000000 160.375061,1.000000 240.757233,1.395859 
	C240.769440,2.182677 240.120804,2.831743 239.399719,2.925848 
	C228.701462,4.322041 217.935104,5.292182 207.300018,7.056983 
	C184.035385,10.917547 162.178955,19.102674 140.845398,29.749105 
	C135.013702,32.945286 129.270020,35.665226 123.981110,39.087887 
	C116.790413,43.741261 109.947281,48.931705 102.603928,53.943909 
	C92.126266,62.986469 81.999771,71.976952 71.564369,81.100449 
	C66.865189,86.302269 62.243259,91.191971 58.147861,96.488785 
	C53.800945,102.110893 49.953754,108.119392 45.575546,114.100563 
	C38.230900,126.826637 31.199028,139.411301 24.002872,152.322144 
	C22.512293,155.590744 20.947458,158.451431 19.905870,161.491379 
	C17.133125,169.583878 14.585751,177.753586 11.621168,186.097824 
	C9.583894,194.202209 7.874218,202.101379 5.972933,210.361237 
	C4.854636,216.577103 4.009843,222.447296 2.938741,228.275925 
	C2.696964,229.591614 1.667092,230.762466 1.000002,232.000000 
z"/>
<path fill="#000000" opacity="1.000000" stroke="none" 
	d="
M513.000000,283.000000 
	C513.000000,359.592743 513.000000,436.185455 513.000000,513.000000 
	C438.645905,513.000000 364.291626,513.000000 289.331390,512.593140 
	C289.395599,511.800995 290.022919,511.211395 290.742218,511.060577 
	C303.800659,508.322357 317.124023,506.490723 329.866699,502.702606 
	C342.889587,498.831177 355.345062,493.051239 368.367920,487.951477 
	C369.099731,487.537720 369.508820,487.272980 369.926056,487.021790 
	C380.988037,480.361145 392.050842,473.701874 403.464661,467.010742 
	C410.894287,461.353363 417.972839,455.727692 425.360870,449.954651 
	C433.053284,442.536011 440.436218,435.264740 447.979309,427.691650 
	C455.708862,417.591003 463.278168,407.792145 471.004456,397.680603 
	C477.718872,385.243774 484.276337,373.119629 491.000671,360.668030 
	C495.723145,347.559937 500.278748,334.779327 504.899780,321.588379 
	C505.095215,320.205933 505.201599,319.229950 505.358887,318.262238 
	C507.266968,306.522308 509.182495,294.783569 511.471252,282.863434 
	C512.230896,282.788239 512.615479,282.894104 513.000000,283.000000 
z"/>
<path fill="#04ADD0" opacity="1.000000" stroke="none" 
	d="
M141.136047,29.586010 
	C162.178955,19.102674 184.035385,10.917547 207.300018,7.056983 
	C217.935104,5.292182 228.701462,4.322041 239.399719,2.925848 
	C240.120804,2.831743 240.769440,2.182677 241.225891,1.395859 
	C251.687561,1.000000 262.375122,1.000000 273.334045,1.403431 
	C275.118713,2.202639 276.610443,2.748555 278.148895,2.970119 
	C289.133209,4.552099 300.367462,5.119395 311.060730,7.830080 
	C326.589508,11.766534 341.832001,16.940407 356.985504,22.195330 
	C362.986420,24.276329 368.421539,27.988956 373.638367,30.966595 
	C298.578857,30.982674 223.995178,31.005974 149.411575,30.939392 
	C146.652664,30.936930 143.894547,30.057014 141.136047,29.586010 
z"/>
<path fill="#6857A5" opacity="1.000000" stroke="none" 
	d="
M368.048950,488.106812 
	C355.345062,493.051239 342.889587,498.831177 329.866699,502.702606 
	C317.124023,506.490723 303.800659,508.322357 290.742218,511.060577 
	C290.022919,511.211395 289.395599,511.800995 288.862732,512.593140 
	C267.979095,513.000000 246.958206,513.000000 225.612854,512.594238 
	C224.941467,511.858612 224.639282,511.312653 224.241165,511.230286 
	C210.849731,508.459595 197.191330,506.607452 184.122498,502.753967 
	C171.090683,498.911377 158.648544,493.068909 146.238144,487.843231 
	C148.574112,487.057404 150.619263,486.074371 152.665543,486.072021 
	C222.526535,485.992096 292.387665,485.988281 362.248596,486.092926 
	C364.183044,486.095825 366.115540,487.406128 368.048950,488.106812 
z"/>
<path fill="#000000" opacity="1.000000" stroke="none" 
	d="
M374.114258,30.958683 
	C368.421539,27.988956 362.986420,24.276329 356.985504,22.195330 
	C341.832001,16.940407 326.589508,11.766534 311.060730,7.830080 
	C300.367462,5.119395 289.133209,4.552099 278.148895,2.970119 
	C276.610443,2.748555 275.118713,2.202639 273.802673,1.403431 
	C316.354218,1.000000 358.708466,1.000000 401.870911,1.228361 
	C391.823517,9.614689 392.684235,20.034172 396.972870,31.524910 
	C397.685547,35.850922 398.380402,39.763908 399.161987,44.165131 
	C390.365845,39.527359 382.240051,35.243019 374.114258,30.958683 
z"/>
<path fill="#000000" opacity="1.000000" stroke="none" 
	d="
M145.947861,488.103271 
	C158.648544,493.068909 171.090683,498.911377 184.122498,502.753967 
	C197.191330,506.607452 210.849731,508.459595 224.241165,511.230286 
	C224.639282,511.312653 224.941467,511.858612 225.144196,512.594238 
	C187.979111,513.000000 150.958206,513.000000 113.165115,512.724670 
	C112.927940,511.822266 113.367874,511.067505 114.012421,510.587494 
	C122.430511,504.318115 124.222908,497.117371 119.894684,486.594055 
	C118.996445,481.659851 118.036407,477.131226 117.089394,472.664032 
	C126.151581,477.532318 135.033920,482.304016 144.005569,487.300171 
	C144.094879,487.524628 144.457474,487.844208 144.457474,487.844208 
	C144.457474,487.844208 144.940659,487.829010 145.189911,487.906921 
	C145.608704,488.024323 145.778275,488.063812 145.947861,488.103271 
z"/>
<path fill="#3683BB" opacity="1.000000" stroke="none" 
	d="
M513.000000,282.531342 
	C512.615479,282.894104 512.230896,282.788239 511.078125,282.707153 
	C499.595551,282.819427 488.881256,282.906860 478.166962,282.994263 
	C478.777710,273.566132 479.751709,264.142792 479.875427,254.708282 
	C479.962372,248.076996 478.891907,241.430542 478.710083,234.386612 
	C490.004150,233.999023 500.926331,234.015671 511.848541,234.032333 
	C512.045776,234.217056 512.243042,234.401779 512.720093,234.293243 
	C513.000000,250.020889 513.000000,266.041779 513.000000,282.531342 
z"/>
<path fill="#3683BB" opacity="1.000000" stroke="none" 
	d="
M34.834000,236.997498 
	C34.556355,243.249802 34.018131,249.504166 34.067223,255.753906 
	C34.128159,263.511292 34.675121,271.264862 34.576508,279.495544 
	C31.989195,279.981079 29.829096,279.871521 27.687328,280.022278 
	C19.176668,280.621429 10.671730,281.301910 2.164674,281.952240 
	C1.962677,281.767944 1.760681,281.583618 1.279342,281.699646 
	C1.000000,266.979095 1.000000,251.958206 1.419875,236.496735 
	C12.837833,236.369934 23.835918,236.683731 34.834000,236.997498 
z"/>
<path fill="#2F89BE" opacity="1.000000" stroke="none" 
	d="
M35.029449,236.629608 
	C23.835918,236.683731 12.837833,236.369934 1.419875,236.028076 
	C1.000000,234.933334 1.000000,233.866653 1.000002,232.399994 
	C1.667092,230.762466 2.696964,229.591614 2.938741,228.275925 
	C4.009843,222.447296 4.854636,216.577103 6.368917,210.457733 
	C17.678560,210.475006 28.400610,210.756516 39.122658,211.038010 
	C37.823402,219.445908 36.524147,227.853806 35.029449,236.629608 
z"/>
<path fill="#04ADD0" opacity="1.000000" stroke="none" 
	d="
M396.955078,31.111881 
	C392.684235,20.034172 391.823517,9.614689 402.339600,1.228361 
	C407.022095,1.000000 412.044189,1.000000 417.533142,0.999998 
	C417.807526,1.203551 417.615082,1.407105 417.422607,1.610661 
	C426.700226,6.924258 427.520905,16.347303 429.028870,25.446014 
	C429.130676,26.060305 429.464233,26.636194 429.366241,27.710865 
	C420.605957,28.461699 412.161865,28.599890 403.738007,29.088093 
	C401.445648,29.220949 399.214386,30.408421 396.955078,31.111881 
z"/>
<path fill="#6857A5" opacity="1.000000" stroke="none" 
	d="
M119.832893,486.999603 
	C124.222908,497.117371 122.430511,504.318115 114.012421,510.587494 
	C113.367874,511.067505 112.927940,511.822266 112.696457,512.724670 
	C108.310745,513.000000 103.621490,513.000000 98.466118,513.000000 
	C97.623795,512.152039 97.481911,510.883270 96.834312,510.522675 
	C91.632339,507.625824 89.426437,503.115204 88.887177,497.361725 
	C88.587830,494.167938 87.632950,491.035522 87.403160,487.449036 
	C98.499489,487.014954 109.166191,487.007263 119.832893,486.999603 
z"/>
<path fill="#09AACE" opacity="1.000000" stroke="none" 
	d="
M396.972870,31.524908 
	C399.214386,30.408421 401.445648,29.220949 403.738007,29.088093 
	C412.161865,28.599890 420.605957,28.461699 429.438385,28.094807 
	C431.458130,35.077049 433.081940,42.156277 434.314392,49.618050 
	C405.520874,50.000469 377.118652,49.973072 348.716644,50.045807 
	C346.107361,50.052486 343.499725,50.698513 340.891327,51.047653 
	C325.790039,46.791920 310.819458,41.972561 295.552216,38.432568 
	C278.944977,34.581871 261.839478,34.073196 244.905609,35.174061 
	C222.597687,36.624290 200.680923,40.754398 179.755371,49.018414 
	C172.975479,51.695965 166.376709,54.832191 159.212128,57.451733 
	C156.676971,56.430271 154.632233,55.122242 152.571442,55.096451 
	C138.120956,54.915600 123.666901,55.043591 109.214790,54.949245 
	C107.126015,54.935608 105.041550,54.260719 102.955093,53.891830 
	C109.947281,48.931705 116.790413,43.741261 123.981110,39.087887 
	C129.270020,35.665226 135.013702,32.945286 140.845398,29.749104 
	C143.894547,30.057014 146.652664,30.936930 149.411575,30.939392 
	C223.995178,31.005974 298.578857,30.982674 373.638367,30.966591 
	C382.240051,35.243019 390.365845,39.527359 399.161987,44.165131 
	C398.380402,39.763908 397.685547,35.850922 396.972870,31.524908 
z"/>
<path fill="#645BA6" opacity="1.000000" stroke="none" 
	d="
M119.894684,486.594055 
	C109.166191,487.007263 98.499489,487.014954 87.356354,487.029816 
	C85.267487,480.295074 83.655045,473.553162 82.563072,466.405121 
	C111.147270,465.999268 139.211075,466.027039 167.274597,465.954376 
	C169.883469,465.947632 172.490707,465.304169 175.098694,464.956390 
	C188.931305,468.737518 202.639252,473.085449 216.626892,476.161682 
	C235.724625,480.361786 255.096130,480.844391 274.653961,479.182709 
	C294.371094,477.507477 313.487823,473.648865 332.093323,467.045898 
	C334.712036,466.116547 337.298767,465.097107 340.599792,464.456024 
	C344.979523,465.528137 348.651459,466.846527 352.341522,466.899170 
	C369.262756,467.140656 386.189056,467.027985 403.113525,467.042419 
	C392.050842,473.701874 380.988037,480.361145 369.926056,487.021790 
	C369.508820,487.272980 369.099731,487.537720 368.367920,487.951477 
	C366.115540,487.406128 364.183044,486.095825 362.248596,486.092926 
	C292.387665,485.988281 222.526535,485.992096 152.665543,486.072021 
	C150.619263,486.074371 148.574112,487.057404 146.238144,487.843231 
	C145.778275,488.063812 145.608704,488.024323 145.033096,487.763062 
	C144.406891,487.360443 144.169952,487.205292 143.916260,487.075745 
	C135.033920,482.304016 126.151581,477.532318 117.089394,472.664032 
	C118.036407,477.131226 118.996445,481.659851 119.894684,486.594055 
z"/>
<path fill="#536AAE" opacity="1.000000" stroke="none" 
	d="
M344.111694,384.045227 
	C325.801880,396.541626 305.781799,405.153992 283.938721,408.761688 
	C267.670868,411.448578 251.301666,411.805481 234.755646,409.275116 
	C218.731216,406.824463 203.521347,402.298462 189.027115,395.372375 
	C182.131012,392.077057 175.794357,387.610992 169.442474,383.205200 
	C171.484558,382.491058 173.288269,382.035004 175.092316,382.033722 
	C228.919327,381.995483 282.746399,381.974823 336.573181,382.088745 
	C339.087402,382.094055 341.598907,383.364136 344.111694,384.045227 
z"/>
<path fill="#1E97C5" opacity="1.000000" stroke="none" 
	d="
M342.109741,128.954590 
	C348.998718,134.398849 355.887726,139.843109 362.603882,145.822662 
	C359.697021,146.904907 356.969269,147.884247 354.227814,147.924072 
	C342.236328,148.098206 330.240448,147.947678 318.247314,148.049805 
	C316.151062,148.067642 314.060272,148.732208 311.599670,149.047913 
	C288.660522,137.662994 264.779785,133.565659 239.836151,137.116867 
	C221.567474,139.717789 204.662842,146.342789 189.464706,157.016357 
	C186.022964,159.433502 182.513901,161.754761 178.843048,163.779694 
	C177.644745,162.976395 176.632370,162.097183 175.634720,162.113556 
	C162.144745,162.335205 148.656830,162.681290 135.168396,162.996582 
	C145.328766,149.709473 157.401947,138.449600 171.935959,129.136108 
	C174.814438,129.509399 176.947342,129.966629 179.080627,129.968262 
	C230.977478,130.008118 282.874390,130.013641 334.771179,129.955124 
	C337.217743,129.952362 339.663574,129.302887 342.109741,128.954590 
z"/>
<path fill="#5A64AB" opacity="1.000000" stroke="none" 
	d="
M76.862228,442.049286 
	C75.320717,434.700348 71.705315,427.664185 73.972351,419.764160 
	C75.529221,414.338867 81.684593,409.039368 87.335228,409.023773 
	C110.119781,408.960938 132.904831,408.934082 155.689102,409.033386 
	C160.454025,409.054138 165.241440,409.466125 169.973648,410.057068 
	C176.056122,410.816620 180.007843,415.152344 181.463760,420.336090 
	C183.033615,425.925568 183.147415,432.201294 178.407288,437.092529 
	C173.851456,441.793488 168.301651,442.931152 161.889862,442.551056 
	C152.624786,442.001862 143.318069,442.155243 133.216858,441.903625 
	C113.890465,441.881989 95.376350,441.965637 76.862228,442.049286 
z"/>
<path fill="#12A1CA" opacity="1.000000" stroke="none" 
	d="
M439.115967,71.958923 
	C440.906921,78.733131 443.846985,85.309441 442.035736,92.635185 
	C440.175476,100.159096 434.827454,104.985458 426.975128,104.933167 
	C400.877930,104.759384 374.780640,104.422775 348.687347,103.937798 
	C340.233276,103.780663 332.249695,95.132095 333.090515,87.020363 
	C334.022705,78.027184 339.555786,71.183868 349.585846,71.004860 
	C352.417419,70.954330 355.251007,71.014351 358.734863,71.392471 
	C362.072449,73.477196 364.659607,73.923897 366.996399,71.166550 
	C368.715729,71.118996 370.435059,71.071442 372.756470,71.386490 
	C378.357086,72.164848 383.359283,72.972015 388.353455,72.925087 
	C405.275848,72.766068 422.195343,72.304741 439.115967,71.958923 
z"/>
<path fill="#199BC7" opacity="1.000000" stroke="none" 
	d="
M341.940033,128.647705 
	C339.663574,129.302887 337.217743,129.952362 334.771179,129.955124 
	C282.874390,130.013641 230.977478,130.008118 179.080627,129.968262 
	C176.947342,129.966629 174.814438,129.509399 172.287796,129.107590 
	C190.704422,116.014198 211.322083,107.644234 234.057236,105.063019 
	C244.028992,103.930893 254.140518,102.737686 264.114380,103.194008 
	C282.947266,104.055634 301.390503,107.640297 318.546204,115.947510 
	C326.437622,119.768738 334.037994,124.191063 341.940033,128.647705 
z"/>
<path fill="#4E6EB0" opacity="1.000000" stroke="none" 
	d="
M344.416260,383.898895 
	C341.598907,383.364136 339.087402,382.094055 336.573181,382.088745 
	C282.746399,381.974823 228.919327,381.995483 175.092316,382.033722 
	C173.288269,382.035004 171.484558,382.491058 169.286957,382.891846 
	C162.671707,377.933838 156.450165,372.819122 150.408905,367.186890 
	C153.668747,366.113342 156.741013,365.130554 159.829224,365.077728 
	C171.140244,364.884155 182.457077,365.055511 193.770416,364.949463 
	C195.863251,364.929871 197.949997,364.260529 200.369476,364.049652 
	C205.002853,366.103363 209.164886,368.476929 213.637726,369.799103 
	C224.682892,373.063965 235.729752,376.771393 247.050888,378.495483 
	C254.490402,379.628479 262.407837,377.612640 270.112244,377.019257 
	C284.178894,375.935822 297.533844,372.124664 309.882568,365.438446 
	C318.486206,360.779999 326.566345,355.154694 335.275513,350.115448 
	C337.796234,350.512817 339.920715,350.954956 342.047485,350.966431 
	C354.309418,351.032623 366.571930,350.996948 378.834229,350.995789 
	C369.236206,363.761261 357.590515,374.394226 344.416260,383.898895 
z"/>
<path fill="#2095C4" opacity="1.000000" stroke="none" 
	d="
M466.165802,179.993240 
	C460.847473,168.819382 455.456085,157.679520 450.237396,146.459305 
	C446.939850,139.369492 451.094391,129.099945 458.272461,125.848106 
	C465.550232,122.551056 476.166504,124.373283 479.525299,131.392120 
	C486.862762,146.725235 493.235107,162.520172 499.667877,178.730194 
	C488.277954,179.553711 477.221863,179.773468 466.165802,179.993240 
z"/>
<path fill="#2B8CBF" opacity="1.000000" stroke="none" 
	d="
M466.106384,180.375488 
	C477.221863,179.773468 488.277954,179.553711 499.693512,179.120972 
	C503.368317,193.011963 506.760040,207.098679 509.949585,221.231018 
	C510.835876,225.158051 511.123138,229.220276 511.766907,233.626404 
	C500.926331,234.015671 490.004150,233.999023 478.623962,233.974518 
	C476.721863,215.639191 472.078888,198.040283 466.106384,180.375488 
z"/>
<path fill="#4C70B1" opacity="1.000000" stroke="none" 
	d="
M47.114639,332.958618 
	C52.029202,343.575989 56.973484,354.179779 61.847572,364.815704 
	C64.931580,371.545410 63.283298,380.869995 58.367928,385.088318 
	C52.531456,390.097137 42.925201,390.582886 36.466434,385.592499 
	C34.126766,383.784698 32.311092,380.864136 31.116407,378.082001 
	C24.943331,363.706451 19.049103,349.211212 13.570015,334.377228 
	C25.093149,333.650726 36.103893,333.304688 47.114639,332.958618 
z"/>
<path fill="#4179B6" opacity="1.000000" stroke="none" 
	d="
M47.049664,332.572815 
	C36.103893,333.304688 25.093149,333.650726 13.624431,333.995667 
	C10.443681,323.012970 7.525654,312.074615 5.076112,301.032379 
	C3.745195,295.032745 3.210972,288.856415 2.241035,282.356018 
	C10.671730,281.301910 19.176668,280.621429 27.687328,280.022278 
	C29.829096,279.871521 31.989195,279.981079 34.613846,279.958069 
	C36.366016,287.125763 37.340672,294.377563 38.996727,301.470245 
	C41.401447,311.769409 44.297928,321.953705 47.049664,332.572815 
z"/>
<path fill="#605EA8" opacity="1.000000" stroke="none" 
	d="
M76.916336,442.462555 
	C95.376350,441.965637 113.890465,441.881989 132.755219,441.923828 
	C137.653931,445.106934 141.963913,448.625763 146.801285,451.122986 
	C155.938980,455.840088 165.379974,459.969666 174.896820,464.649872 
	C172.490707,465.304169 169.883469,465.947632 167.274597,465.954376 
	C139.211075,466.027039 111.147270,465.999268 82.625687,465.998535 
	C80.435371,458.290649 78.702904,450.583252 76.916336,442.462555 
z"/>
<path fill="#0CA6CD" opacity="1.000000" stroke="none" 
	d="
M439.065735,71.538788 
	C422.195343,72.304741 405.275848,72.766068 388.353455,72.925087 
	C383.359283,72.972015 378.357086,72.164848 373.181274,71.457687 
	C374.145233,71.055855 375.286469,70.945427 377.493835,70.731842 
	C365.623413,62.690643 353.606293,56.876049 341.070068,51.368526 
	C343.499725,50.698513 346.107361,50.052486 348.716644,50.045807 
	C377.118652,49.973072 405.520874,50.000469 434.381561,50.001015 
	C436.231873,57.040508 437.623688,64.079582 439.065735,71.538788 
z"/>
<path fill="#2690C1" opacity="1.000000" stroke="none" 
	d="
M135.013153,163.305908 
	C148.656830,162.681290 162.144745,162.335205 175.634720,162.113556 
	C176.632370,162.097183 177.644745,162.976395 178.709503,164.082092 
	C166.295700,176.067825 155.930573,189.055664 147.707367,203.870636 
	C145.532791,203.479950 143.754288,203.049683 141.972336,203.034882 
	C132.275543,202.954239 122.577911,202.975998 112.880569,202.962524 
	C118.078949,188.658493 125.122093,175.384857 135.013153,163.305908 
z"/>
<path fill="#4675B4" opacity="1.000000" stroke="none" 
	d="
M378.990234,350.687622 
	C366.571930,350.996948 354.309418,351.032623 342.047485,350.966431 
	C339.920715,350.954956 337.796234,350.512817 335.423706,349.812317 
	C347.170044,338.134766 357.990997,325.998108 365.613953,311.002777 
	C377.755249,311.013947 389.437622,311.025330 401.119995,311.036713 
	C395.915344,325.334961 388.865204,338.602509 378.990234,350.687622 
z"/>
<path fill="#1C99C6" opacity="1.000000" stroke="none" 
	d="
M24.167160,151.995972 
	C31.199028,139.411301 38.230900,126.826637 46.051189,114.107956 
	C59.932735,113.995102 73.025864,114.016243 86.118988,114.037399 
	C82.078690,119.722664 77.857140,125.289482 74.044594,131.123581 
	C69.421570,138.197891 65.144035,145.497940 59.939095,152.863434 
	C47.496502,152.683014 35.831829,152.339493 24.167160,151.995972 
z"/>
<path fill="#0CA6CD" opacity="1.000000" stroke="none" 
	d="
M102.603928,53.943909 
	C105.041550,54.260719 107.126015,54.935608 109.214790,54.949245 
	C123.666901,55.043591 138.120956,54.915600 152.571442,55.096451 
	C154.632233,55.122242 156.676971,56.430271 158.859695,57.490246 
	C145.577988,66.221840 132.165710,74.608047 118.042770,82.831940 
	C115.543602,82.445633 113.756119,82.037682 111.966423,82.027748 
	C101.039040,81.967094 90.110558,82.057541 79.183907,81.949562 
	C76.744034,81.925438 74.309990,81.310417 71.873268,80.967438 
	C81.999771,71.976952 92.126266,62.986469 102.603928,53.943909 
z"/>
<path fill="#506CAF" opacity="1.000000" stroke="none" 
	d="
M490.833740,360.995483 
	C484.276337,373.119629 477.718872,385.243774 470.545624,397.682190 
	C456.592133,397.980957 443.254425,397.965393 429.916748,397.949829 
	C438.026581,385.404419 446.136444,372.858978 455.025452,360.143188 
	C458.608765,359.981903 461.415253,359.919647 464.216583,360.013153 
	C473.090027,360.309296 481.961487,360.663635 490.833740,360.995483 
z"/>
<path fill="#3484BB" opacity="1.000000" stroke="none" 
	d="
M407.052673,223.876007 
	C407.879944,227.927597 409.235382,231.953644 409.432770,236.035690 
	C409.967407,247.092575 410.010376,258.173218 409.582642,269.620636 
	C401.271332,269.996460 393.619141,270.175537 385.983490,269.898956 
	C383.286438,269.801270 380.629730,268.590515 377.974915,267.426941 
	C378.626770,252.793976 377.293182,238.814911 374.313507,225.047165 
	C383.937439,225.362274 393.127014,225.775421 402.320007,225.876511 
	C403.890045,225.893784 405.474731,224.576691 407.052673,223.876007 
z"/>
<path fill="#12A1CA" opacity="1.000000" stroke="none" 
	d="
M71.564369,81.100449 
	C74.309990,81.310417 76.744034,81.925438 79.183907,81.949562 
	C90.110558,82.057541 101.039040,81.967094 111.966423,82.027748 
	C113.756119,82.037682 115.543602,82.445633 117.690079,82.884903 
	C113.591507,87.306679 109.065659,91.442650 104.695168,95.736732 
	C98.642548,101.683540 92.706764,107.749252 86.419968,113.900726 
	C73.025864,114.016243 59.932735,113.995102 46.363968,113.966553 
	C49.953754,108.119392 53.800945,102.110893 58.147861,96.488785 
	C62.243259,91.191971 66.865189,86.302269 71.564369,81.100449 
z"/>
<path fill="#2F89BE" opacity="1.000000" stroke="none" 
	d="
M112.564514,203.161560 
	C122.577911,202.975998 132.275543,202.954239 141.972336,203.034882 
	C143.754288,203.049683 145.532791,203.479950 147.652252,204.123779 
	C147.939011,204.693527 147.886368,204.857925 147.688065,205.195251 
	C147.360947,205.609314 147.192932,205.859467 147.010284,206.487213 
	C141.660492,219.052979 137.506500,231.560928 136.375565,244.996124 
	C125.333557,244.663727 114.749786,244.330383 104.166016,243.997040 
	C103.689499,230.831650 107.838005,218.546661 111.375847,206.146027 
	C111.642685,205.210693 111.956490,204.288742 112.564514,203.161560 
z"/>
<path fill="#3881BA" opacity="1.000000" stroke="none" 
	d="
M103.959702,244.373352 
	C114.749786,244.330383 125.333557,244.663727 136.423309,245.418579 
	C136.620880,247.587845 136.132690,249.325409 136.032944,251.085007 
	C135.324280,263.586670 137.178024,275.835266 139.375275,287.997070 
	C128.000290,287.996368 117.083519,287.995209 106.166756,287.994049 
	C103.197426,274.812439 102.716949,261.431976 103.027367,247.995178 
	C103.052475,246.908340 103.501404,245.831284 103.959702,244.373352 
z"/>
<path fill="#3D7CB7" opacity="1.000000" stroke="none" 
	d="
M377.954590,267.887939 
	C380.629730,268.590515 383.286438,269.801270 385.983490,269.898956 
	C393.619141,270.175537 401.271332,269.996460 409.374939,269.995850 
	C410.303467,283.157227 406.201660,295.443298 402.582306,307.821655 
	C402.308319,308.758789 402.021118,309.692078 401.430023,310.831909 
	C389.437622,311.025330 377.755249,311.013947 365.663849,310.652100 
	C367.873932,303.528503 370.924377,296.883942 372.993011,289.946625 
	C375.141571,282.741241 376.340424,275.252686 377.954590,267.887939 
z"/>
<path fill="#4179B6" opacity="1.000000" stroke="none" 
	d="
M106.121231,288.387177 
	C117.083519,287.995209 128.000290,287.996368 139.545746,288.343506 
	C140.753708,290.371063 141.187729,292.120392 141.935760,293.723175 
	C146.959427,304.487305 152.049820,315.220276 156.642517,325.970123 
	C146.185013,325.984436 136.202835,325.930176 126.222725,326.049652 
	C124.129417,326.074707 122.043762,326.738953 119.954582,327.108673 
	C113.972588,315.862152 109.461845,304.079712 106.960991,291.558746 
	C106.771782,290.611450 106.375656,289.705475 106.121231,288.387177 
z"/>
<path fill="#4873B3" opacity="1.000000" stroke="none" 
	d="
M491.000641,360.667999 
	C481.961487,360.663635 473.090027,360.309296 464.216583,360.013153 
	C461.415253,359.919647 458.608765,359.981903 455.325500,359.965576 
	C459.622040,348.166565 464.413086,336.380981 469.152252,324.574615 
	C469.694336,323.224152 469.946167,321.757202 470.937317,320.385986 
	C473.734863,320.951080 475.919739,321.883148 478.121979,321.925964 
	C487.023224,322.099152 495.929749,321.998383 504.834351,321.998718 
	C500.278748,334.779327 495.723145,347.559937 491.000641,360.667999 
z"/>
<path fill="#2B8CBF" opacity="1.000000" stroke="none" 
	d="
M407.029236,223.470428 
	C405.474731,224.576691 403.890045,225.893784 402.320007,225.876511 
	C393.127014,225.775421 383.937439,225.362274 373.995605,224.835693 
	C372.884888,223.210648 372.731598,221.708939 372.132874,220.413071 
	C367.457184,210.293304 362.695984,200.213043 358.248474,189.857880 
	C360.912720,189.064133 363.281372,188.122269 365.667999,188.074402 
	C375.148254,187.884186 384.634155,187.973145 394.117950,187.958679 
	C397.404419,195.425140 400.931122,202.798340 403.879822,210.395905 
	C405.440643,214.417526 405.996307,218.829254 407.029236,223.470428 
z"/>
<path fill="#4179B6" opacity="1.000000" stroke="none" 
	d="
M504.899780,321.588379 
	C495.929749,321.998383 487.023224,322.099152 478.121979,321.925964 
	C475.919739,321.883148 473.734863,320.951080 471.254456,320.166382 
	C473.182098,309.192322 475.410004,298.482208 477.595825,287.763519 
	C477.857300,286.481323 477.889801,285.152435 478.097717,283.419739 
	C488.881256,282.906860 499.595551,282.819427 510.703003,282.888245 
	C509.182495,294.783569 507.266968,306.522308 505.358887,318.262238 
	C505.201599,319.229950 505.095215,320.205933 504.899780,321.588379 
z"/>
<path fill="#5766AC" opacity="1.000000" stroke="none" 
	d="
M429.624908,398.123230 
	C443.254425,397.965393 456.592133,397.980957 470.388672,397.994934 
	C463.278168,407.792145 455.708862,417.591003 447.572571,427.648102 
	C443.886688,427.603943 440.769928,427.069977 437.648376,427.040192 
	C425.726776,426.926392 413.803650,426.974976 401.881104,426.962921 
	C407.783752,421.279327 413.821869,415.727753 419.539124,409.863373 
	C423.057159,406.254822 426.085083,402.168457 429.624908,398.123230 
z"/>
<path fill="#2492C2" opacity="1.000000" stroke="none" 
	d="
M24.002871,152.322159 
	C35.831829,152.339493 47.496502,152.683014 59.636986,153.034882 
	C55.405827,164.437424 50.698856,175.831619 45.520710,187.513123 
	C36.601604,187.534027 28.150751,187.333862 19.707489,186.961578 
	C17.110584,186.847046 14.534423,186.262115 11.948765,185.892593 
	C14.585751,177.753586 17.133125,169.583878 19.905870,161.491379 
	C20.947458,158.451431 22.512293,155.590744 24.002871,152.322159 
z"/>
<path fill="#605EA8" opacity="1.000000" stroke="none" 
	d="
M403.464661,467.010742 
	C386.189056,467.027985 369.262756,467.140656 352.341522,466.899170 
	C348.651459,466.846527 344.979523,465.528137 341.007263,464.480530 
	C351.395874,458.719391 362.076508,453.270386 373.398376,447.828735 
	C374.835632,448.030212 375.632935,448.398499 376.427399,448.392487 
	C390.168488,448.289001 403.909790,448.033142 417.649689,448.097992 
	C420.119995,448.109650 422.584320,449.401367 425.051392,450.102051 
	C417.972839,455.727692 410.894287,461.353363 403.464661,467.010742 
z"/>
<path fill="#5A64AB" opacity="1.000000" stroke="none" 
	d="
M425.360901,449.954651 
	C422.584320,449.401367 420.119995,448.109650 417.649689,448.097992 
	C403.909790,448.033142 390.168488,448.289001 376.427399,448.392487 
	C375.632935,448.398499 374.835632,448.030212 373.666260,447.616760 
	C382.621094,440.681396 391.949371,433.965424 401.579346,427.106171 
	C413.803650,426.974976 425.726776,426.926392 437.648376,427.040192 
	C440.769928,427.069977 443.886688,427.603943 447.412384,427.949890 
	C440.436218,435.264740 433.053284,442.536011 425.360901,449.954651 
z"/>
<path fill="#4873B3" opacity="1.000000" stroke="none" 
	d="
M120.101608,327.425995 
	C122.043762,326.738953 124.129417,326.074707 126.222725,326.049652 
	C136.202835,325.930176 146.185013,325.984436 156.948380,326.113403 
	C164.833679,334.127319 171.937057,342.004730 178.684357,350.099823 
	C176.550186,350.544739 174.773361,350.956146 172.993774,350.968445 
	C163.441086,351.034485 153.884338,350.863159 144.336823,351.095734 
	C141.840637,351.156525 139.372467,352.366486 136.891418,353.048645 
	C131.343826,344.613525 125.796227,336.178436 120.101608,327.425995 
z"/>
<path fill="#2492C2" opacity="1.000000" stroke="none" 
	d="
M394.058228,187.595490 
	C384.634155,187.973145 375.148254,187.884186 365.667999,188.074402 
	C363.281372,188.122269 360.912720,189.064133 357.945312,189.687195 
	C356.960510,189.078079 356.678589,188.276291 356.154785,187.690979 
	C349.083130,179.789291 341.977814,171.917725 335.276001,163.884537 
	C337.796783,163.487167 339.921295,163.045120 342.048218,163.033524 
	C354.310791,162.966644 366.573883,163.001526 378.836823,163.001938 
	C383.890717,171.078720 388.944611,179.155502 394.058228,187.595490 
z"/>
<path fill="#2B8CBF" opacity="1.000000" stroke="none" 
	d="
M11.621166,186.097824 
	C14.534423,186.262115 17.110584,186.847046 19.707489,186.961578 
	C28.150751,187.333862 36.601604,187.534027 45.446678,187.892654 
	C43.819363,195.522141 41.794907,203.059433 39.446552,210.817352 
	C28.400610,210.756516 17.678560,210.475006 6.560528,210.097015 
	C7.874218,202.101379 9.583894,194.202209 11.621166,186.097824 
z"/>
<path fill="#2095C4" opacity="1.000000" stroke="none" 
	d="
M378.802216,162.668823 
	C366.573883,163.001526 354.310791,162.966644 342.048218,163.033524 
	C339.921295,163.045120 337.796783,163.487167 334.964874,163.742950 
	C326.828064,158.869690 319.397522,153.983887 311.966980,149.098083 
	C314.060272,148.732208 316.151062,148.067642 318.247314,148.049805 
	C330.240448,147.947678 342.236328,148.098206 354.227814,147.924072 
	C356.969269,147.884247 359.697021,146.904907 362.741852,146.126770 
	C368.290955,151.375610 373.529297,156.855652 378.802216,162.668823 
z"/>
<path fill="#4C70B1" opacity="1.000000" stroke="none" 
	d="
M137.040009,353.356323 
	C139.372467,352.366486 141.840637,351.156525 144.336823,351.095734 
	C153.884338,350.863159 163.441086,351.034485 172.993774,350.968445 
	C174.773361,350.956146 176.550186,350.544739 178.999054,350.249573 
	C186.459732,354.751465 193.249634,359.321289 200.039551,363.891083 
	C197.949997,364.260529 195.863251,364.929871 193.770416,364.949463 
	C182.457077,365.055511 171.140244,364.884155 159.829224,365.077728 
	C156.741013,365.130554 153.668747,366.113342 150.268021,366.885925 
	C145.694122,362.623016 141.441376,358.143494 137.040009,353.356323 
z"/>
<path fill="#0CA6CD" opacity="1.000000" stroke="none" 
	d="
M366.556641,71.098953 
	C364.659607,73.923897 362.072449,73.477196 359.195068,71.463776 
	C361.374969,71.121307 363.745941,71.076332 366.556641,71.098953 
z"/>
<path fill="#6857A5" opacity="1.000000" stroke="none" 
	d="
M144.005554,487.300171 
	C144.169952,487.205292 144.406891,487.360443 144.783844,487.685120 
	C144.940659,487.829010 144.457474,487.844208 144.457474,487.844208 
	C144.457474,487.844208 144.094879,487.524628 144.005554,487.300171 
z"/>
<path fill="#000000" opacity="1.000000" stroke="none" 
	d="
M200.369476,364.049652 
	C193.249634,359.321289 186.459732,354.751465 179.355133,350.031891 
	C171.937057,342.004730 164.833679,334.127319 157.424438,326.106628 
	C152.049820,315.220276 146.959427,304.487305 141.935760,293.723175 
	C141.187729,292.120392 140.753708,290.371063 140.003952,288.343079 
	C137.178024,275.835266 135.324280,263.586670 136.032944,251.085007 
	C136.132690,249.325409 136.620880,247.587845 136.881531,245.417633 
	C137.506500,231.560928 141.660492,219.052979 147.249039,206.388885 
	C147.621826,205.622147 147.727783,205.322250 147.833740,205.022339 
	C147.886368,204.857925 147.939011,204.693527 148.046753,204.275970 
	C155.930573,189.055664 166.295700,176.067825 178.902267,164.422546 
	C182.513901,161.754761 186.022964,159.433502 189.464706,157.016357 
	C204.662842,146.342789 221.567474,139.717789 239.836151,137.116867 
	C264.779785,133.565659 288.660522,137.662994 311.599670,149.047913 
	C319.397522,153.983887 326.828064,158.869690 334.569733,163.897095 
	C341.977814,171.917725 349.083130,179.789291 356.154785,187.690979 
	C356.678589,188.276291 356.960510,189.078079 357.658020,189.949921 
	C362.695984,200.213043 367.457184,210.293304 372.132874,220.413071 
	C372.731598,221.708939 372.884888,223.210648 373.562378,224.828461 
	C377.293182,238.814911 378.626770,252.793976 377.974915,267.426941 
	C376.340424,275.252686 375.141571,282.741241 372.993011,289.946625 
	C370.924377,296.883942 367.873932,303.528503 365.204895,310.652344 
	C357.990997,325.998108 347.170044,338.134766 335.028534,349.658142 
	C326.566345,355.154694 318.486206,360.779999 309.882568,365.438446 
	C297.533844,372.124664 284.178894,375.935822 270.112244,377.019257 
	C262.407837,377.612640 254.490402,379.628479 247.050888,378.495483 
	C235.729752,376.771393 224.682892,373.063965 213.637726,369.799103 
	C209.164886,368.476929 205.002853,366.103363 200.369476,364.049652 
M298.739136,317.736389 
	C301.104095,311.490540 303.469025,305.244659 306.009979,298.165863 
	C306.339478,296.588623 307.070496,294.973877 306.927185,293.440826 
	C306.382294,287.611206 305.554901,281.807953 304.711182,275.281158 
	C303.144318,271.879822 301.867523,268.305634 299.961121,265.106659 
	C291.024933,250.111252 277.897614,241.906097 260.310852,240.958313 
	C253.839523,240.609573 247.830353,238.772964 242.988281,233.201889 
	C236.958481,222.597153 241.409561,214.984192 246.692429,210.601379 
	C253.918030,204.606842 264.333008,205.494492 271.997467,215.768814 
	C276.892761,228.857452 284.140015,228.442062 292.176483,227.904816 
	C298.214874,227.501144 302.915009,221.596497 304.967255,212.195267 
	C303.255676,207.462234 301.544128,202.729187 299.745728,197.323715 
	C294.511536,189.438019 287.940887,182.704956 279.272095,179.041351 
	C274.361237,176.965912 273.123932,173.773483 273.076355,169.555939 
	C272.933075,156.850128 259.239349,151.788681 249.332657,156.356674 
	C243.265015,159.154449 240.327271,164.322388 241.018951,171.164795 
	C241.353302,174.472183 240.536804,176.664429 237.075378,178.008667 
	C227.676712,181.658615 220.170181,187.715958 215.175720,196.799286 
	C215.175720,196.799286 215.375656,196.756302 214.743423,196.932541 
	C214.551544,197.277878 214.359650,197.623230 213.853897,198.625900 
	C207.223831,210.463928 204.901505,222.865891 208.989960,236.871857 
	C214.354950,258.054932 233.504074,272.501282 253.677475,273.125854 
	C257.772919,273.252655 261.817322,275.028259 266.231262,276.653076 
	C273.448669,281.191650 275.318085,288.569733 271.261658,299.256287 
	C267.928925,303.794006 263.754303,306.668762 257.872955,307.052338 
	C248.343948,307.673889 243.253540,302.085999 240.162903,294.304749 
	C236.155960,284.216583 219.514893,282.048615 212.595291,291.704559 
	C207.255554,299.155914 207.465271,306.816315 215.997147,318.746307 
	C221.113266,327.189941 228.682816,332.531952 237.588211,336.439514 
	C239.164673,337.131287 240.335434,339.642883 240.888641,341.547882 
	C241.601852,344.003784 240.968460,346.896820 241.853470,349.248383 
	C244.845184,357.197479 251.353455,360.302368 261.193970,358.972656 
	C267.214508,358.159119 271.998444,352.350586 273.060883,345.086334 
	C273.686829,340.806763 274.000031,336.980408 279.609741,334.726837 
	C287.428223,331.585968 294.325287,326.235199 298.739136,317.736389 
z"/>
<path fill="#2690C1" opacity="1.000000" stroke="none" 
	d="
M147.688080,205.195251 
	C147.727783,205.322250 147.621826,205.622147 147.277130,206.020355 
	C147.192932,205.859467 147.360947,205.609314 147.688080,205.195251 
z"/>
<path fill="#3683BB" opacity="1.000000" stroke="none" 
	d="
M243.108902,233.954102 
	C247.830353,238.772964 253.839523,240.609573 260.310852,240.958313 
	C277.897614,241.906097 291.024933,250.111252 299.961121,265.106659 
	C301.867523,268.305634 303.144318,271.879822 304.314178,275.638977 
	C291.239868,276.012451 278.562561,276.028107 265.885254,276.043762 
	C261.817322,275.028259 257.772919,273.252655 253.677475,273.125854 
	C233.504074,272.501282 214.354950,258.054932 209.327301,236.271637 
	C215.411819,235.446991 221.161713,235.275909 226.905396,234.982712 
	C232.309998,234.706848 237.707993,234.302124 243.108902,233.954102 
z"/>
<path fill="#2B8CBF" opacity="1.000000" stroke="none" 
	d="
M243.048584,233.578003 
	C237.707993,234.302124 232.309998,234.706848 226.905396,234.982712 
	C221.161713,235.275909 215.411819,235.446991 209.306213,235.886505 
	C204.901505,222.865891 207.223831,210.463928 214.199738,198.086548 
	C214.822266,197.283569 215.098969,197.019943 215.375656,196.756302 
	C215.375656,196.756302 215.175720,196.799286 215.678757,196.775665 
	C219.169281,196.834488 222.156265,196.952667 225.144318,196.993744 
	C250.040283,197.335922 274.936432,197.663895 299.832550,197.996155 
	C301.544128,202.729187 303.255676,207.462234 304.504761,212.693695 
	C299.923065,213.461426 295.805511,213.760345 291.684235,213.993256 
	C285.086151,214.366135 278.485565,214.695236 271.886047,215.042847 
	C264.333008,205.494492 253.918030,204.606842 246.692429,210.601379 
	C241.409561,214.984192 236.958481,222.597153 243.048584,233.578003 
z"/>
<path fill="#2690C1" opacity="1.000000" stroke="none" 
	d="
M299.789124,197.659943 
	C274.936432,197.663895 250.040283,197.335922 225.144318,196.993744 
	C222.156265,196.952667 219.169281,196.834488 215.657211,196.675720 
	C220.170181,187.715958 227.676712,181.658615 237.075378,178.008667 
	C240.536804,176.664429 241.353302,174.472183 241.018951,171.164795 
	C240.327271,164.322388 243.265015,159.154449 249.332657,156.356674 
	C259.239349,151.788681 272.933075,156.850128 273.076355,169.555939 
	C273.123932,173.773483 274.361237,176.965912 279.272095,179.041351 
	C287.940887,182.704956 294.511536,189.438019 299.789124,197.659943 
z"/>
<path fill="#4179B6" opacity="1.000000" stroke="none" 
	d="
M305.833954,298.998810 
	C303.469025,305.244659 301.104095,311.490540 297.951599,317.881653 
	C274.026276,318.017914 250.888443,318.006622 227.750610,318.002014 
	C223.795532,318.001251 219.840469,318.029114 215.885391,318.043732 
	C207.465271,306.816315 207.255554,299.155914 212.595291,291.704559 
	C219.514893,282.048615 236.155960,284.216583 240.162903,294.304749 
	C243.253540,302.085999 248.343948,307.673889 257.872955,307.052338 
	C263.754303,306.668762 267.928925,303.794006 272.048370,299.115265 
	C283.834717,298.982422 294.834320,298.990631 305.833954,298.998810 
z"/>
<path fill="#4675B4" opacity="1.000000" stroke="none" 
	d="
M215.941269,318.395020 
	C219.840469,318.029114 223.795532,318.001251 227.750610,318.002014 
	C250.888443,318.006622 274.026276,318.017914 297.640198,318.035217 
	C294.325287,326.235199 287.428223,331.585968 279.609741,334.726837 
	C274.000031,336.980408 273.686829,340.806763 273.060883,345.086334 
	C271.998444,352.350586 267.214508,358.159119 261.193970,358.972656 
	C251.353455,360.302368 244.845184,357.197479 241.853470,349.248383 
	C240.968460,346.896820 241.601852,344.003784 240.888641,341.547882 
	C240.335434,339.642883 239.164673,337.131287 237.588211,336.439514 
	C228.682816,332.531952 221.113266,327.189941 215.941269,318.395020 
z"/>
<path fill="#3D7CB7" opacity="1.000000" stroke="none" 
	d="
M305.921967,298.582336 
	C294.834320,298.990631 283.834717,298.982422 272.358948,298.966125 
	C275.318085,288.569733 273.448669,281.191650 266.058258,276.348419 
	C278.562561,276.028107 291.239868,276.012451 304.375122,275.995850 
	C305.554901,281.807953 306.382294,287.611206 306.927185,293.440826 
	C307.070496,294.973877 306.339478,296.588623 305.921967,298.582336 
z"/>
<path fill="#2F89BE" opacity="1.000000" stroke="none" 
	d="
M271.941772,215.405823 
	C278.485565,214.695236 285.086151,214.366135 291.684235,213.993256 
	C295.805511,213.760345 299.923065,213.461426 304.438110,213.095306 
	C302.915009,221.596497 298.214874,227.501144 292.176483,227.904816 
	C284.140015,228.442062 276.892761,228.857452 271.941772,215.405823 
z"/>
<path fill="#2690C1" opacity="1.000000" stroke="none" 
	d="
M215.059540,196.844421 
	C215.098969,197.019943 214.822266,197.283569 214.356659,197.757904 
	C214.359650,197.623230 214.551544,197.277878 215.059540,196.844421 
z"/>
</svg>